# xmcd
#
# Track frame offsets:
#	150
#	13211
#	32211
#	54109
#	66090
#	77689
#	100032
#	121094
#	136025
#	151464
#
# Disc length: 2226 seconds
# Revision: 0
# Processed by: cddbd v1.5.2PL0 Copyright (c) Steve Scherf et al.
# Submitted via: dBpowerAMP V12.0
#
DISCID=7208b00a
DTITLE=Anne Christenson - Anne Christenson and Nashville Friends
DYEAR=2015
DGENRE=Country
TTITLE0=I Just Knew
TTITLE1=Now What Do We Do
TTITLE2=How Could We Do This To Us
TTITLE3=You're Running Wild  featuring Mike Farris
TTITLE4=Listen Sister
TTITLE5=How Insensitive
TTITLE6=Happy In Waiting
TTITLE7=You Had Your Chance
TTITLE8=Hot Burrito #1  featuring Doug Seegers
TTITLE9=Sleepless
EXTD=
EXTT0=
EXTT1=
EXTT2=
EXTT3=
EXTT4=
EXTT5=
EXTT6=
EXTT7=
EXTT8=
EXTT9=
PLAYORDER=
